<svg xmlns="http://www.w3.org/2000/svg" viewBox="0 0 512 512" role="img" aria-label="Champions League">
  <defs>
    <linearGradient id="bg" x1="0" y1="0" x2="1" y2="1">
      <stop offset="0%" stop-color="#1e3a8a"/>
      <stop offset="55%" stop-color="#172554"/>
      <stop offset="100%" stop-color="#4f46e5"/>
    </linearGradient>
    <linearGradient id="ring" x1="0" y1="0" x2="1" y2="1">
      <stop offset="0%" stop-color="#c7d2fe"/>
      <stop offset="100%" stop-color="#ffffff"/>
    </linearGradient>
  </defs>

  <rect width="512" height="512" rx="120" fill="url(#bg)"/>
  <circle cx="256" cy="212" r="120" fill="none" stroke="url(#ring)" stroke-width="10" opacity="0.9"/>

  <g fill="#ffffff" opacity="0.95">
    <polygon points="256,118 270,160 314,160 279,186 293,228 256,202 219,228 233,186 198,160 242,160"/>
    <polygon points="181,150 191,179 221,179 197,196 206,224 181,207 156,224 165,196 141,179 171,179"/>
    <polygon points="331,150 341,179 371,179 347,196 356,224 331,207 306,224 315,196 291,179 321,179"/>
    <polygon points="216,260 224,284 249,284 229,298 237,322 216,307 195,322 203,298 183,284 208,284"/>
    <polygon points="296,260 304,284 329,284 309,298 317,322 296,307 275,322 283,298 263,284 288,284"/>
  </g>

  <text x="256" y="390" text-anchor="middle" fill="#e0e7ff" font-size="44" font-family="Inter,Arial,sans-serif" font-weight="700">CHAMPIONS</text>
  <text x="256" y="430" text-anchor="middle" fill="#c7d2fe" font-size="28" font-family="Inter,Arial,sans-serif" letter-spacing="3">LEAGUE</text>
</svg>
